# xmcd
#
# Track frame offsets:
# 150
# 22731
# 40129
# 58533
# 75184
# 90526
# 105652
# 120636
# 140011
# 156902
# 178408
# 200846
# 226102
# 243929
# 257696
#
# Disc length: 3654 seconds
#
#
# Revision: 1
# Processed by: cddbd v1.5.2PL0 Copyright (c) Steve Scherf et al.
# Submitted via: FreeRIP 2.96 
#
DISCID=bc0e440f
DTITLE=Various Artist - Alma de Soul (2 de 2)
DYEAR=1996
DGENRE=Disco
TTITLE0=Martika/Love..Thy Will Be Done
TTITLE1=Billy Ocean/Suddenly
TTITLE2=Duke/So In Love With You
TTITLE3=Imagination/Music And Lights
TTITLE4=Harold Melvin and The Blue Notes/If You Don't Know Me By Now
TTITLE5=Kansas/Dust In The Wind
TTITLE6=Susana Hoffs/My Side Of The Bed
TTITLE7=Barry White/You're The One I Needed
TTITLE8=Miquel Brown/Close To Perfection
TTITLE9=Glennis Grace/One Moment In Time
TTITLE10=Richenel/I Can't Get You Out Of My Mind
TTITLE11=Urban Cookie Collective/So Beautiful
TTITLE12=Ruby Turner/I'd Rather Go Blind
TTITLE13=Jesse Green/Nice 'n Slow
TTITLE14=The Chi-Lites/Have You Seen Her
EXTD=
EXTT0=
EXTT1=
EXTT2=
EXTT3=
EXTT4=
EXTT5=
EXTT6=
EXTT7=
EXTT8=
EXTT9=
EXTT10=
EXTT11=
EXTT12=
EXTT13=
EXTT14=
PLAYORDER=
